<svg width="32" height="32" viewBox="0 0 32 32" fill="none" xmlns="http://www.w3.org/2000/svg">
  <!-- 橘子侧面主体 -->
  <ellipse cx="16" cy="17" rx="12" ry="10" fill="#FFCB00" />
  
  <!-- 切面 -->
  <path d="M28 17C28 17 26 8 16 8C6 8 4 17 4 17C4 17 6 26 16 26C26 26 28 17 28 17Z" fill="#FFE145" />
  
  <!-- 橘子分瓣 -->
  <path d="M16 8V26" stroke="#FFB800" stroke-width="0.5" stroke-linecap="round" stroke-dasharray="1 2" />
  <path d="M11 8.5L11 25.5" stroke="#FFB800" stroke-width="0.5" stroke-linecap="round" stroke-dasharray="1 2" />
  <path d="M21 8.5L21 25.5" stroke="#FFB800" stroke-width="0.5" stroke-linecap="round" stroke-dasharray="1 2" />
  
  <!-- 增强叶子 -->
  <path d="M16 7C16 7 19 4 23 6C23 6 20 9 17 9C17 9 16 8.5 16 7Z" fill="#69B578" />
  <path d="M16 7C16 7 19 4 23 6" stroke="#3D8361" stroke-width="0.5" stroke-linecap="round" />
  
  <!-- 吉卜力风格装饰 - 小光点 -->
  <circle cx="21" cy="14" r="0.5" fill="white" fill-opacity="0.8" />
  <circle cx="24" cy="17" r="0.3" fill="white" fill-opacity="0.8" />
  <circle cx="11" cy="22" r="0.4" fill="white" fill-opacity="0.7" />
  
  <!-- 果汁滴落效果 -->
  <path d="M9 22C9 22 8.5 24 9.5 25C10.5 26 11 24 11 24" fill="#FFDF80" />
  <path d="M9 22C9 22 8.5 24 9.5 25C10.5 26 11 24 11 24" stroke="#FFB800" stroke-width="0.2" />
</svg> 