<svg width="32" height="32" viewBox="0 0 32 32" fill="none" xmlns="http://www.w3.org/2000/svg">
  <!-- 柠檬底色 -->
  <circle cx="16" cy="16" r="15" fill="#FFE135" />
  
  <!-- 叶子 -->
  <path d="M17 4C17 4 20 1 24 3C24 3 21 6 18 6C18 6 17 5.5 17 4Z" fill="#4CAF50" />
  
  <!-- FP字母简化 -->
  <path d="M8 10H14V13H10V16H13V19H10V25H8V10Z" fill="#2563EB" />
  <path d="M16 10H21C23 10 24 12 24 14C24 16 23 18 21 18H18V25H16V10ZM18 13V16H20C21 16 21.5 15 21.5 14.5C21.5 14 21 13 20 13H18Z" fill="#2563EB" />
</svg> 