<svg width="200" height="200" viewBox="0 0 200 200" fill="none" xmlns="http://www.w3.org/2000/svg">
  <!-- 柠檬底色 -->
  <circle cx="100" cy="100" r="90" fill="#FFE135" />
  
  <!-- 柠檬纹理 -->
  <path d="M100 190C149.706 190 190 149.706 190 100C190 50.2944 149.706 10 100 10C50.2944 10 10 50.2944 10 100C10 149.706 50.2944 190 100 190Z" stroke="#FFB800" stroke-width="3" />
  
  <!-- 叶子 -->
  <path d="M110 25C110 25 130 5 155 20C155 20 140 40 115 40C115 40 110 35 110 25Z" fill="#4CAF50" />
  
  <!-- F字母 - Fresh -->
  <path d="M55 70H85V90H60V110H80V130H60V170H45V70H55Z" fill="#2563EB" />
  
  <!-- P字母 - Press -->
  <path d="M95 70H125C135 70 145 80 145 90C145 100 135 110 125 110H110V170H95V70ZM110 90V95H120C122 95 125 93 125 90C125 87 122 85 120 85H110V90Z" fill="#2563EB" />
</svg> 